<svg width="28" height="28" viewBox="0 0 28 28" fill="none" xmlns="http://www.w3.org/2000/svg">
<g clip-path="url(#clip0)">
<g filter="url(#filter0_d)">
<path d="M23.4043 2.72423C23.4043 1.22208 22.1822 0 20.6801 0H5.43043C4.55736 0 3.84707 0.710221 3.84707 1.58329V2.76335H3.58179C3.27834 2.76335 2.99391 2.88127 2.78177 3.09448C2.5678 3.30845 2.45001 3.59275 2.45001 3.89506C2.45001 4.51909 2.95776 5.02684 3.58179 5.02684H3.84707V6.62157H3.58179C3.27834 6.62157 2.99391 6.73949 2.78177 6.9527C2.5678 7.16667 2.45001 7.45097 2.45001 7.75335C2.45001 8.37738 2.95776 8.88513 3.58179 8.88513H3.84707V10.4799H3.58179C3.27834 10.4799 2.99391 10.5978 2.78177 10.811C2.5678 11.025 2.45001 11.3093 2.45001 11.6116C2.45001 12.2357 2.95776 12.7434 3.58179 12.7434H3.84707V14.3381H3.58179C3.27834 14.3381 2.99391 14.4561 2.78177 14.6693C2.5678 14.8832 2.45001 15.1675 2.45001 15.4699C2.45001 16.0939 2.95776 16.6016 3.58179 16.6016H3.84707V18.1964H3.58179C3.27828 18.1964 2.99391 18.3143 2.78177 18.5276C2.5678 18.7415 2.45001 19.0258 2.45001 19.3281C2.45001 19.9522 2.95776 20.4599 3.58179 20.4599H3.84707V22.0547H3.58179C3.27834 22.0547 2.99391 22.1726 2.78177 22.3858C2.5678 22.5998 2.45001 22.8841 2.45001 23.1864C2.45001 23.8105 2.95776 24.3182 3.58179 24.3182H3.84707V26.4166H3.8472C3.8472 27.2897 4.55748 27.9999 5.43049 27.9999H20.6798C22.182 27.9999 23.404 26.7779 23.404 25.2757L23.4043 2.72423ZM3.58179 4.14215C3.44555 4.14215 3.33471 4.03131 3.33471 3.89506C3.33471 3.81045 3.3742 3.75313 3.4082 3.7192C3.45389 3.67326 3.51557 3.64798 3.58185 3.64798H3.84714V4.14215H3.58179ZM3.58179 8.00043C3.44555 8.00043 3.33471 7.88959 3.33471 7.75335C3.33471 7.66874 3.3742 7.61142 3.4082 7.57749C3.45389 7.53155 3.51557 7.50627 3.58185 7.50627H3.84714V8.00043H3.58179V8.00043ZM3.58179 11.8587C3.44555 11.8587 3.33471 11.7479 3.33471 11.6116C3.33471 11.527 3.3742 11.4697 3.4082 11.4358C3.45389 11.3898 3.51557 11.3646 3.58185 11.3646H3.84714V11.8587H3.58179ZM3.58179 15.717C3.44555 15.717 3.33471 15.6062 3.33471 15.4699C3.33471 15.3853 3.3742 15.328 3.4082 15.2941C3.45389 15.2481 3.51557 15.2228 3.58185 15.2228H3.84714V15.717H3.58179ZM3.58179 19.5753C3.44555 19.5753 3.33471 19.4645 3.33471 19.3282C3.33471 19.2436 3.3742 19.1863 3.40826 19.1523C3.45395 19.1063 3.51557 19.0811 3.58185 19.0811H3.84714V19.5753H3.58179ZM4.73177 19.0811H5.17563C5.35523 19.5572 5.8142 19.8973 6.35234 19.8973C7.04626 19.8973 7.61082 19.3328 7.61082 18.6388C7.61082 17.9449 7.04626 17.3803 6.35234 17.3803C5.81426 17.3803 5.35523 17.7204 5.17563 18.1964H4.73171V15.2228H5.17557C5.35516 15.6989 5.8142 16.039 6.35228 16.039C7.0462 16.039 7.61076 15.4745 7.61076 14.7805C7.61076 14.0865 7.0462 13.5219 6.35228 13.5219C5.81413 13.5219 5.35516 13.8621 5.17557 14.3381H4.73171V11.3646H5.17557C5.35516 11.8406 5.8142 12.1807 6.35228 12.1807C7.0462 12.1807 7.61076 11.6162 7.61076 10.9222C7.61076 10.2283 7.0462 9.66373 6.35228 9.66373C5.8142 9.66373 5.35516 10.0038 5.17557 10.4799H4.73164V7.50627H5.17551C5.3551 7.9823 5.81407 8.32246 6.35222 8.32246C7.04613 8.32246 7.6107 7.7579 7.6107 7.06398C7.6107 6.37007 7.04613 5.80544 6.35222 5.80544C5.81413 5.80544 5.3551 6.14554 5.17551 6.62157H4.73158V3.64804H5.17544C5.35504 4.12407 5.81407 4.46424 6.35215 4.46424C7.04607 4.46424 7.61063 3.89968 7.61063 3.2057C7.61063 2.51172 7.04607 1.94715 6.35215 1.94715C5.81401 1.94715 5.35504 2.28726 5.17544 2.76335H4.73158V1.58329C4.73158 1.19807 5.04495 0.884696 5.43017 0.884696H20.6798C21.6941 0.884696 22.5193 1.70993 22.5193 2.72423L22.5192 23.0012C22.5152 24.0122 21.6917 24.8335 20.6798 24.8335H6.84082H5.43055C5.17987 24.8335 4.94271 24.8923 4.73177 24.9965V22.9395H5.17563C5.35523 23.4156 5.81426 23.7557 6.35234 23.7557C7.04626 23.7557 7.61082 23.1912 7.61082 22.4972C7.61082 21.8033 7.04626 21.2387 6.35234 21.2387C5.81426 21.2387 5.35523 21.5788 5.17563 22.0548H4.73171V19.0811H4.73177ZM6.35241 19.0126C6.14627 19.0126 5.97856 18.845 5.97856 18.6388C5.97856 18.4327 6.14627 18.265 6.35241 18.265C6.55854 18.265 6.72619 18.4327 6.72619 18.6388C6.72619 18.845 6.55854 19.0126 6.35241 19.0126ZM6.35241 15.1543C6.14627 15.1543 5.97856 14.9866 5.97856 14.7805C5.97856 14.5744 6.14627 14.4066 6.35241 14.4066C6.55854 14.4066 6.72619 14.5744 6.72619 14.7805C6.72619 14.9866 6.55854 15.1543 6.35241 15.1543ZM6.35241 11.2961C6.14627 11.2961 5.97856 11.1283 5.97856 10.9222C5.97856 10.7161 6.14627 10.5484 6.35241 10.5484C6.55854 10.5484 6.72619 10.7161 6.72619 10.9222C6.72619 11.1283 6.55854 11.2961 6.35241 11.2961ZM6.35241 7.43777C6.14627 7.43777 5.97856 7.27012 5.97856 7.06398C5.97856 6.85785 6.14627 6.69014 6.35241 6.69014C6.55854 6.69014 6.72619 6.85785 6.72619 7.06398C6.72619 7.27012 6.55854 7.43777 6.35241 7.43777ZM6.35241 3.57948C6.14627 3.57948 5.97856 3.41177 5.97856 3.20563C5.97856 2.9995 6.14627 2.83179 6.35241 2.83179C6.55854 2.83179 6.72619 2.9995 6.72619 3.20563C6.72619 3.41177 6.55854 3.57948 6.35241 3.57948ZM6.35241 22.8709C6.14627 22.8709 5.97856 22.7032 5.97856 22.4971C5.97856 22.2909 6.14627 22.1233 6.35241 22.1233C6.55854 22.1233 6.72619 22.2909 6.72619 22.4971C6.72619 22.7032 6.55854 22.8709 6.35241 22.8709ZM3.58179 23.4336C3.44555 23.4336 3.33471 23.3227 3.33471 23.1865C3.33471 23.1019 3.3742 23.0446 3.4082 23.0106C3.45389 22.9647 3.51557 22.9394 3.58185 22.9394H3.84714V23.4336H3.58179V23.4336ZM20.6799 27.1153H5.43055C5.04533 27.1153 4.73196 26.8019 4.73196 26.4167C4.73196 26.0315 5.04533 25.7181 5.43055 25.7181H5.61211H20.6801C21.3884 25.7181 22.0344 25.4461 22.5194 25.0014V25.2758C22.5194 26.2901 21.6942 27.1153 20.6799 27.1153Z" fill="#66596C"/>
<g clip-path="url(#clip1)">
<path d="M19.8364 1.38691C19.6018 1.2097 19.1879 1.1828 18.8189 1.31491C18.5259 1.42495 18.4926 1.45381 18.4131 1.69751C18.3272 1.9442 18.3287 1.96353 18.4576 1.97004C18.8482 1.98115 19.451 2.10658 19.6839 2.23125C19.8314 2.30909 19.9749 2.36217 20.007 2.34719C20.1098 2.29925 20.1618 1.83502 20.0833 1.67167C20.035 1.58755 19.9259 1.45851 19.8364 1.38691Z" fill="#66596C"/>
<path d="M20.5639 3.44054C20.4809 3.36595 20.3743 3.42233 20.2891 3.5887C20.1747 3.80871 19.9658 3.79948 19.3621 3.54119C18.7583 3.28289 17.6983 3.02411 17.5441 3.09601C17.4349 3.14695 17.3115 3.36451 16.9763 4.0741C16.7451 4.54189 16.7239 4.64508 16.8578 4.62927C17.0265 4.60393 17.9652 4.83931 18.5364 5.04615C18.9099 5.18523 19.203 5.25516 19.28 5.21921C19.3507 5.18625 19.4204 5.2004 19.4492 5.26029C19.4937 5.35286 17.8932 8.99227 17.7764 9.06008C17.7379 9.07806 17.5835 9.29671 17.4203 9.54614C17.1755 9.92027 17.1453 10.021 17.2131 10.1294C17.26 10.1942 17.2685 10.3102 17.2355 10.3722C17.1234 10.5645 17.1983 10.5895 17.4745 10.4607C17.7764 10.3199 17.7472 10.3735 19.2434 7.12266C19.6369 6.27257 20.1407 5.1777 20.3743 4.68213C20.7145 3.95021 20.7763 3.76806 20.7071 3.64037C20.6679 3.55869 20.5989 3.46423 20.5639 3.44054Z" fill="#66596C"/>
<path d="M19.6475 2.54818C19.3369 2.35981 18.7878 2.18264 18.685 2.23058C18.6529 2.24556 18.4892 2.24858 18.3113 2.23826C18.1334 2.22793 17.9569 2.23695 17.9119 2.25792C17.8182 2.3083 17.5929 2.70667 17.6243 2.77201C17.6348 2.79379 17.9214 2.86671 18.2583 2.92956C18.5951 2.9924 19.0226 3.11296 19.2036 3.19516C19.7506 3.43332 19.7969 3.43168 19.929 3.15013C20.0724 2.84326 20.0436 2.78336 19.6475 2.54818Z" fill="#66596C"/>
<path d="M18.5009 5.31598C18.1622 5.16737 16.9794 4.86587 16.7294 4.86917C16.6121 4.87055 16.5039 5.05435 16.0747 5.96107C14.9636 8.27908 11.6896 15.6186 11.7262 15.6949C11.7472 15.7384 12.0381 15.8693 12.3702 15.9877C12.9478 16.1916 13.6755 16.2987 13.8746 16.2059C13.926 16.1819 14.2909 15.4851 14.6922 14.6513C15.5189 12.9193 18.8711 5.52993 18.8502 5.48637C18.8423 5.47004 18.6884 5.39519 18.5009 5.31598Z" fill="#66596C"/>
<path d="M13.5618 16.6184C13.459 16.6663 12.1542 16.4218 12.1202 16.351C12.0836 16.2747 11.6056 16.131 11.5157 16.173C11.4772 16.191 11.3868 16.3464 11.3325 16.5117C11.2693 16.6746 11.0057 17.3041 10.7509 17.9028C9.80392 20.1043 9.74588 20.278 9.86554 20.4288C10.1218 20.7493 11.0802 21.0421 11.3949 20.8953C11.5491 20.8234 11.7261 20.5209 12.34 19.328C12.4545 19.1079 12.8053 18.431 13.1258 17.8216C13.6648 16.7837 13.7609 16.5255 13.5618 16.6184Z" fill="#66596C"/>
<path d="M10.6166 21.0917C10.3634 21.0231 10.0739 20.9115 9.98448 20.8399C9.886 20.7659 9.78251 20.7142 9.75682 20.7261C9.7209 20.7496 9.53608 21.5757 9.24659 23.0838C9.19569 23.3542 9.13955 23.6137 9.12314 23.6613C9.07509 23.7904 9.05368 24.0403 9.08247 24.1002C9.09817 24.1329 9.18404 24.0662 9.26445 23.9554C9.35128 23.8415 9.50328 23.6507 9.59653 23.5338C9.68979 23.417 9.94242 23.0592 10.1579 22.7387C10.3708 22.4128 10.6744 21.9646 10.8326 21.7375C10.9972 21.5074 11.1142 21.2928 11.1011 21.2656C11.0854 21.2329 10.8671 21.1548 10.6166 21.0917Z" fill="#66596C"/>
</g>
</g>
</g>
<defs>
<filter id="filter0_d" x="-4" y="0" width="36" height="36" filterUnits="userSpaceOnUse" color-interpolation-filters="sRGB">
<feFlood flood-opacity="0" result="BackgroundImageFix"/>
<feColorMatrix in="SourceAlpha" type="matrix" values="0 0 0 0 0 0 0 0 0 0 0 0 0 0 0 0 0 0 127 0"/>
<feOffset dy="4"/>
<feGaussianBlur stdDeviation="2"/>
<feColorMatrix type="matrix" values="0 0 0 0 0 0 0 0 0 0 0 0 0 0 0 0 0 0 0.25 0"/>
<feBlend mode="normal" in2="BackgroundImageFix" result="effect1_dropShadow"/>
<feBlend mode="normal" in="SourceGraphic" in2="effect1_dropShadow" result="shape"/>
</filter>
<clipPath id="clip0">
<rect width="28" height="28" fill="white"/>
</clipPath>
<clipPath id="clip1">
<rect width="18.1237" height="21.262" fill="white" transform="matrix(0.433168 0.901313 -0.906263 0.422715 19.7517 0)"/>
</clipPath>
</defs>
</svg>
